<svg width="54" height="39" viewBox="0 0 54 39" fill="none" xmlns="http://www.w3.org/2000/svg">
<path d="M14.249 0C16.5913 0 18.4261 0.671732 19.7534 2.0152C21.0807 3.33232 21.7443 5.29483 21.7443 7.90274C21.7443 10.4843 20.8204 12.8551 18.9726 15.0152C17.1248 17.1753 14.7955 18.2553 11.9848 18.2553C10.3712 18.2553 9.33015 18.0446 8.86169 17.6231C8.52336 17.2806 8.35419 16.8723 8.35419 16.3982C8.35419 15.8977 8.51034 15.5157 8.82265 15.2523C9.13496 14.9625 9.4863 14.8176 9.87668 14.8176C10.2931 14.8176 10.8396 14.9493 11.5163 15.2128C12.219 15.4762 12.9087 15.6079 13.5853 15.6079C15.0427 15.6079 16.305 15.0152 17.372 13.8298C18.4651 12.618 19.0116 11.1297 19.0116 9.36474C19.0116 7.57346 18.4261 6.01925 17.2549 4.70213C16.1098 3.385 14.6133 2.72644 12.7655 2.72644C10.9177 2.72644 9.20002 3.22695 7.61246 4.22796C7.30016 12.2888 7.144 22.7335 7.144 35.5623C7.144 37.8541 6.4283 39 4.9969 39C4.45036 39 3.95588 38.7893 3.51344 38.3678C3.09704 37.9463 2.88883 37.4063 2.88883 36.7477C2.88883 36.1155 3.1621 35.4043 3.70864 34.614C4.2812 33.8237 4.56748 32.9939 4.56748 32.1246C4.56748 23.616 4.52844 18.0446 4.45036 15.4103C4.32024 11.0111 4.25517 8.24519 4.25517 7.11246C3.52646 7.98176 2.94088 8.87741 2.49845 9.79939C2.05602 10.7214 1.57454 11.1824 1.05403 11.1824C0.351344 11.1824 0 10.8136 0 10.076C0 9.3384 0.403396 8.42958 1.21019 7.34954C2.01698 6.24316 3.04499 5.14995 4.29421 4.06991C5.56946 2.96353 7.10497 2.0152 8.90073 1.22492C10.7225 0.408308 12.5053 0 14.249 0Z" fill="#2B3B92"/>
<path d="M51.5015 3.24012L51.0331 3.27964C51.3194 11.4458 51.6187 17.307 51.931 20.8632C52.009 21.7325 52.3734 22.5887 53.024 23.4316C53.6747 24.2746 54 24.999 54 25.6049C54 26.1844 53.8178 26.6849 53.4535 27.1064C53.1151 27.5279 52.6467 27.7386 52.0481 27.7386C51.4755 27.7386 50.981 27.383 50.5646 26.6717C50.1742 25.9341 49.94 25.1439 49.8619 24.3009C49.2373 15.5289 48.4566 8.87741 47.5196 4.3465C45.1513 5.55826 42.8351 7.65248 40.5708 10.6292C42.6269 13.922 43.6549 16.7275 43.6549 19.0456C43.6549 21.3374 42.8871 23.3262 41.3516 25.0122C39.8161 26.6717 38.3847 27.5015 37.0574 27.5015C35.7301 27.5015 34.7021 27.0669 33.9734 26.1976C33.2707 25.3283 32.9193 24.2614 32.9193 22.997C32.9193 21.7062 33.3357 20.0861 34.1686 18.1368C35.0274 16.1611 36.1465 14.1064 37.5258 11.9726C36.3287 10.155 34.9493 8.54813 33.3878 7.15197C31.8263 5.75583 30.3038 4.79433 28.8203 4.26748C28.8203 4.3465 28.7162 5.08409 28.508 6.48024C27.5971 12.2492 26.9725 19.8359 26.6342 29.2401C26.504 33.4813 26.3999 35.9443 26.3219 36.6292C26.2698 37.3141 26.0616 37.8409 25.6972 38.2097C25.3329 38.6049 24.9035 38.8024 24.409 38.8024C23.9405 38.8024 23.4981 38.6049 23.0817 38.2097C22.6913 37.8409 22.4961 37.2219 22.4961 36.3526C22.4961 35.5096 22.8475 32.9807 23.5501 28.766C25.0076 20.0203 25.7883 11.6829 25.8924 3.7538C24.8254 3.51672 24.2919 2.84499 24.2919 1.7386C24.2919 1.2381 24.5261 0.829788 24.9946 0.513678C25.463 0.171226 26.0356 0 26.7122 0C28.7162 0 30.8763 0.869301 33.1926 2.6079C35.5349 4.32016 37.643 6.48024 39.5168 9.08815C41.4947 6.42756 43.5377 4.25431 45.6458 2.56839C47.7539 0.85613 49.7058 0 51.5015 0C52.7248 0 53.3363 0.500506 53.3363 1.50152C53.3363 1.97568 53.1281 2.38399 52.7117 2.72644C52.3214 3.0689 51.918 3.24012 51.5015 3.24012ZM40.5708 20.4286C40.5708 18.4265 39.8812 16.1611 38.5018 13.6322C36.3937 17.0567 35.3397 19.6383 35.3397 21.3769C35.3397 22.3252 35.5739 23.155 36.0424 23.8663C36.5369 24.5775 37.1485 24.9331 37.8772 24.9331C38.6059 24.9331 39.2305 24.4721 39.751 23.5502C40.2976 22.6018 40.5708 21.5613 40.5708 20.4286Z" fill="#2B3B92"/>
</svg>
